<?xml version="1.0" encoding="UTF-8" standalone="no"?>
<!-- Created with Inkscape (http://www.inkscape.org/) -->

<svg
   width="12.626089mm"
   height="13.519286mm"
   viewBox="0 0 12.626089 13.519286"
   version="1.1"
   id="svg5"
   inkscape:version="1.1.1 (3bf5ae0d25, 2021-09-20)"
   sodipodi:docname="inkscapeSVG.svg"
   xmlns:inkscape="http://www.inkscape.org/namespaces/inkscape"
   xmlns:sodipodi="http://sodipodi.sourceforge.net/DTD/sodipodi-0.dtd"
   xmlns="http://www.w3.org/2000/svg"
   xmlns:svg="http://www.w3.org/2000/svg">
  <sodipodi:namedview
     id="namedview7"
     pagecolor="#ffffff"
     bordercolor="#666666"
     borderopacity="1.0"
     inkscape:pageshadow="2"
     inkscape:pageopacity="0.0"
     inkscape:pagecheckerboard="0"
     inkscape:document-units="mm"
     showgrid="false"
     inkscape:zoom="16.307581"
     inkscape:cx="26.030839"
     inkscape:cy="22.627513"
     inkscape:window-width="1284"
     inkscape:window-height="1040"
     inkscape:window-x="415"
     inkscape:window-y="46"
     inkscape:window-maximized="0"
     inkscape:current-layer="layer1" />
  <defs
     id="defs2" />
  <g
     inkscape:label="Layer 1"
     inkscape:groupmode="layer"
     id="layer1"
     transform="translate(-58.659222,-26.372761)">
    <path
       style="fill:none;stroke:#000000;stroke-width:0.264583px;stroke-linecap:butt;stroke-linejoin:miter;stroke-opacity:1"
       d="m 64.532513,33.949631 c -0.20827,-0.0023 -0.402312,0.03733 -0.616534,-0.01622 -0.08801,-0.022 -0.127678,-0.06708 -0.210919,-0.09735 -0.04191,-0.01524 -0.08991,-0.0125 -0.129796,-0.03245 -0.02736,-0.01368 -0.04042,-0.04654 -0.0649,-0.0649 -0.01935,-0.01451 -0.04477,-0.01903 -0.0649,-0.03245 -0.01273,-0.0085 -0.01877,-0.02561 -0.03245,-0.03245 -0.0097,-0.0048 -0.02278,0.0048 -0.03245,0 -0.02776,-0.01388 -0.06536,-0.08684 -0.08112,-0.09735 -0.02846,-0.01897 -0.06998,-0.01193 -0.09735,-0.03245 -0.01935,-0.01451 -0.01409,-0.04916 -0.03245,-0.0649 -0.02211,-0.01895 -0.05643,-0.01701 -0.08112,-0.03245 -0.108772,-0.06798 0.0034,-0.02489 -0.08112,-0.09735 -0.02394,-0.02052 -0.05882,-0.02638 -0.08112,-0.04867 -0.02419,-0.02419 -0.0051,-0.07682 -0.03245,-0.09735 -0.01298,-0.0097 -0.03361,0.006 -0.04867,0 -0.09037,-0.03615 -0.184029,-0.245372 -0.243369,-0.324491 -0.01377,-0.01836 -0.03534,-0.03 -0.04867,-0.04867 -0.05323,-0.07452 -0.05555,-0.16673 -0.09735,-0.243368 -0.01951,-0.03577 -0.103558,-0.08307 -0.113572,-0.129797 -0.017,-0.07932 0.02386,-0.165833 0,-0.243368 -0.01423,-0.04623 -0.05259,-0.08302 -0.0649,-0.129797 -0.02629,-0.09992 -0.0108,-0.207236 -0.03245,-0.308266 -0.0097,-0.04518 -0.04867,-0.08359 -0.04867,-0.129796 0,-0.0329 0.01349,-0.06457 0.01622,-0.09735 0.0096,-0.115723 0.01271,-0.25874 0,-0.373165 -0.0055,-0.04956 -0.02627,-0.09654 -0.03245,-0.146021 -0.02583,-0.206666 0.01622,-0.02392 0.01622,-0.210919 0,-0.0329 -0.01349,-0.06456 -0.01622,-0.09735 -0.01317,-0.158055 -0.01592,-0.343744 0,-0.502962 0.01281,-0.128139 0.06953,-0.239505 0.113572,-0.35694 0.01983,-0.05287 0.0244,-0.111267 0.04867,-0.162246 0.03032,-0.06366 0.08095,-0.115953 0.113572,-0.17847 0.06087,-0.116668 0.07642,-0.216216 0.146021,-0.324491 0.02284,-0.03553 0.05769,-0.0622 0.08112,-0.09735 0.02012,-0.03019 0.02545,-0.06948 0.04867,-0.09735 0.0069,-0.0083 0.02553,0.0083 0.03245,0 0.02323,-0.02787 0.0292,-0.06674 0.04867,-0.09735 0.09413,-0.147911 0.237217,-0.296856 0.373165,-0.405614 0.0094,-0.0076 0.02163,-0.01082 0.03245,-0.01622 0.02163,-0.01622 0.04455,-0.03087 0.0649,-0.04867 0.02302,-0.02014 0.03804,-0.05025 0.0649,-0.0649 0.03457,-0.01885 0.07773,-0.01616 0.113572,-0.03245 0.01662,-0.0076 0.08001,-0.058 0.09735,-0.08112 0.0073,-0.0097 0.0048,-0.02862 0.01622,-0.03245 0.02565,-0.0086 0.05499,0.007 0.08112,0 0.05628,-0.01501 0.106987,-0.04648 0.162246,-0.0649 0.0747,-0.0249 0.153648,-0.03663 0.227144,-0.0649 0.06772,-0.02605 0.127069,-0.07105 0.194694,-0.09735 0.08337,-0.03242 0.07673,-0.0044 0.129797,-0.01622 0.227533,-0.05056 0.453153,-0.100366 0.681431,-0.146021 0.121008,-0.0242 0.253064,0.0082 0.373165,0.01622 0.107249,0.0071 0.233467,0.0091 0.340716,0.01623 0.06149,0.0041 0.13412,-0.01101 0.194695,0 0.129623,0.02357 0.260191,0.06267 0.389389,0.08112 0.02142,0.0031 0.04391,-0.0052 0.0649,0 0.04366,0.01092 0.122766,0.05743 0.162246,0.08112 0.06075,0.03645 0.004,0.05 0.09735,0.08112 0.02565,0.0086 0.05627,-0.01065 0.08112,0 0.01792,0.0077 0.02163,0.03245 0.03245,0.04867 0.02163,0.01622 0.03958,0.03918 0.0649,0.04867 0.02026,0.0076 0.04391,-0.0052 0.0649,0 0.02346,0.0059 0.04118,0.02771 0.0649,0.03245 0.05272,0.01054 0.144448,-0.02146 0.194695,0.01622 0.0097,0.0073 0.0077,0.0239 0.01622,0.03245 0.02565,0.02565 0.06783,0.02759 0.09735,0.04867 0.05018,0.03584 0.09993,0.0726 0.146021,0.113572 0.02021,0.01797 0.02814,0.0473 0.04867,0.0649 0.06435,0.05516 0.05315,0.01415 0.113572,0.04867 0.09891,0.05652 0.138589,0.14758 0.210919,0.227144 0.100409,0.110449 0.09026,0.04227 0.162246,0.162245 0.01498,0.02497 0.0185,0.05555 0.03245,0.08112 0.07051,0.12927 0.163748,0.264099 0.210919,0.405614 0.0104,0.03121 0.01082,0.0649 0.01623,0.09735 0.01082,0.03786 0.01921,0.07649 0.03245,0.113571 0.01286,0.03602 0.106731,0.212586 0.113572,0.243369 0.007,0.03168 0,0.0649 0,0.09735 0.0054,0.03245 0.0077,0.06556 0.01622,0.09735 0.03384,0.126921 0.09608,0.258218 0.113572,0.389389 0.0057,0.04289 -0.0033,0.08666 0,0.129797 0.0065,0.08466 0.04037,0.156278 0.03245,0.243368 -0.01153,0.126831 -0.0081,0.2839 -0.04867,0.405614 -0.02524,0.07571 -0.08518,0.151429 -0.113572,0.227144 -0.03259,0.0869 -0.04854,0.221367 -0.08112,0.308266 -0.01531,0.04083 -0.04959,0.07275 -0.0649,0.113572 -0.01751,0.04669 -0.01393,0.09973 -0.03245,0.146021 -0.03232,0.08079 -0.10625,0.163828 -0.146021,0.243369 -0.02382,0.04764 -0.03698,0.100658 -0.0649,0.146021 -0.01603,0.02606 -0.04948,0.03847 -0.0649,0.0649 -0.02328,0.03991 -0.02575,0.08968 -0.04867,0.129797 -0.02096,0.03667 -0.05708,0.06262 -0.08112,0.09735 -0.214401,0.30969 0.0742,-0.07798 -0.113572,0.227144 -0.04351,0.0707 -0.165303,0.230201 -0.227144,0.292042 -0.0086,0.0086 -0.0239,0.0077 -0.03245,0.01622 -0.05544,0.05544 -0.09944,0.132585 -0.146021,0.194695 -0.03816,0.05088 -0.110637,0.02951 -0.146021,0.0649 -0.01912,0.01912 -0.02832,0.04709 -0.04867,0.0649 -0.116762,0.102166 -0.03885,0.01131 -0.146021,0.0649 -0.02736,0.01368 -0.04327,0.04326 -0.0649,0.0649 -0.07332,0.07332 0.0066,0.0023 -0.162246,0.08112 -0.06808,0.03177 -0.126296,0.08248 -0.194694,0.113572 -0.03114,0.01416 -0.06675,0.01715 -0.09735,0.03245 -0.02418,0.01209 -0.04019,0.03769 -0.0649,0.04867 -0.0252,0.0112 -0.05702,0.0028 -0.08112,0.01623 -0.02674,0.01486 -0.03753,0.05122 -0.0649,0.0649 -0.05284,0.02642 -0.109406,0.006 -0.162246,0.03245 -0.01368,0.0068 -0.01877,0.02561 -0.03245,0.03245 -0.02581,0.01291 -0.228061,0.05859 -0.259593,0.0649 -0.02121,0.0042 -0.04481,-0.008 -0.0649,0 -0.01123,0.0045 -0.0077,0.0239 -0.01622,0.03245 -0.0086,0.0086 -0.398884,-0.03036 -0.421839,-0.03245 -0.04309,-0.0039 -0.08712,0.0071 -0.129796,0 -0.02748,-0.0046 -0.06344,-0.04795 -0.0649,-0.04867 -0.02902,-0.01451 -0.06515,0.004 -0.09735,0 -0.06231,0.05854 -0.05256,-0.02674 -0.08112,-0.03245 -0.02121,-0.0042 -0.04343,0.0027 -0.0649,0 -0.06949,-0.0087 -0.126929,-0.0536 -0.194695,-0.0649 -0.016,-0.0027 -0.03328,0.0051 -0.04867,0 -0.115347,-0.03845 0.0028,-0.03245 -0.08112,-0.03245"
       id="path1091" />
    <path
       style="fill:none;stroke:#000000;stroke-width:0.264583px;stroke-linecap:butt;stroke-linejoin:miter;stroke-opacity:1"
       d="m 63.088527,31.418599 c -0.0023,0.03134 0.0341,0.202855 0.04867,0.227144 0.02028,0.0338 0.09915,0.08112 0.113572,0.113572 0.01098,0.02471 -0.01391,0.05794 0,0.08112 0.0083,0.01391 0.03416,-0.0073 0.04867,0 0.05942,0.02971 0.19965,0.206159 0.243369,0.259593 0.05481,0.06699 0.08809,0.177709 0.162245,0.227144 0.05702,0.03802 0.184386,0.09048 0.243369,0.129796 0.08891,0.05928 0.161526,0.161886 0.259593,0.21092 0.02466,0.01233 0.05578,0.0054 0.08112,0.01622 0.01406,0.006 0.01813,0.02708 0.03245,0.03245 0.04585,0.0172 0.101007,-0.0031 0.146021,0.01622 0.02486,0.01065 0.03855,0.04259 0.0649,0.04867 0.04743,0.01095 0.09772,-0.006 0.146021,0 0.03907,0.0049 0.07466,0.02646 0.113572,0.03245 0.04811,0.0074 0.09801,-0.008 0.146021,0 0.219766,0.03663 0.439559,0.03245 0.665207,0.03245 0.08368,0 0.177095,0.01179 0.259593,0 0.04415,-0.0063 0.08607,-0.0237 0.129796,-0.03245 0.05621,-0.03999 0.119895,-0.0045 0.178471,-0.01622 0.04257,-0.0085 0.07924,-0.05966 0.113571,-0.08112 0.01971,-0.01232 0.124727,-0.0436 0.146022,-0.0649 0.01209,-0.0121 0.0041,-0.03658 0.01622,-0.04867 0.01694,-0.01694 0.07335,-0.0094 0.09735,-0.01622 0.05929,-0.01694 0.09471,-0.07937 0.146021,-0.113572 0.154756,-0.103171 -0.09218,0.11799 0.113572,-0.0649 0.02858,-0.02541 0.05053,-0.05818 0.08112,-0.08112 0.01368,-0.01026 0.03553,-0.0053 0.04867,-0.01622 0.04761,-0.03967 0.04304,-0.09171 0.08112,-0.129796 0.0038,-0.0038 0.0124,0.0038 0.01622,0 0.01597,-0.01597 0.0043,-0.106034 0.01622,-0.129797 0.0068,-0.01368 0.02761,-0.01794 0.03245,-0.03245 0.0068,-0.02052 -0.0042,-0.04369 0,-0.0649 0.0047,-0.02372 0.02658,-0.04143 0.03245,-0.0649 0.0064,-0.02545 -0.0064,-0.05567 0,-0.08112 0.0071,-0.02825 0.02445,-0.05312 0.03245,-0.08112 0.01161,-0.04062 -0.02362,-0.126819 0,-0.162245 0.01273,-0.01909 0.03245,-0.03245 0.04867,-0.04867 0,-0.02704 -0.01004,-0.05602 0,-0.08112 0.03786,-0.09464 0.03245,0.05814 0.03245,-0.01622"
       id="path1093" />
    <path
       style="fill:none;stroke:#000000;stroke-width:0.264583px;stroke-linecap:butt;stroke-linejoin:miter;stroke-opacity:1"
       d="m 63.818632,30.412676 c -0.118223,0.05311 -0.109787,0.0411 -0.210919,-0.03245 -0.137727,-0.100164 -0.09786,-0.09158 -0.194695,-0.227143 -0.0279,-0.03905 -0.0045,-0.02254 -0.01622,-0.08112 -0.0057,-0.02856 -0.02539,-0.05287 -0.03245,-0.08112 -0.04068,-0.16271 0.103696,-0.38457 0.17847,-0.502962 0.02704,-0.03245 0.05408,-0.0649 0.08112,-0.09735 0.01082,-0.0054 0.0239,-0.0077 0.03245,-0.01622 0.01209,-0.01209 9.26e-4,-0.04103 0.01622,-0.04867 0.0434,-0.0217 0.260689,0 0.308267,0 0.01837,0 0.125648,-0.01019 0.146021,0 0.140175,0.07009 0.210024,0.23685 0.259593,0.373165 0.01,0.02737 0.01747,0.05615 0.03245,0.08112 0.0028,0.0046 0.01516,-0.0053 0.01622,0 0.0053,0.02652 -0.0034,0.05429 0,0.08112 0.01087,0.08693 0.01838,0.086 -0.03245,0.162245 -0.012,0.018 0.0068,0.04438 0,0.0649 -0.0041,0.01239 -0.113495,0.04856 -0.113572,0.04867 -0.03074,0.04612 -0.0387,0.1167 -0.09735,0.146021 -0.02456,0.01228 -0.07285,-0.0098 -0.09735,0 -0.0142,0.0057 -0.01972,0.02396 -0.03245,0.03245 -0.018,0.012 -0.04501,-0.0085 -0.0649,0 -0.02485,0.01065 -0.04171,0.03476 -0.0649,0.04867 -0.02028,0.01217 -0.02434,-0.02434 -0.04867,0 -0.073,0.073 0.160981,-0.0078 -0.0649,0.04867 z"
       id="path1097" />
    <path
       style="fill:none;stroke:#000000;stroke-width:0.264583px;stroke-linecap:butt;stroke-linejoin:miter;stroke-opacity:1"
       d="m 66.398337,30.28288 c -0.08215,0.03884 -0.14272,-0.0097 -0.210919,-0.03245 -0.01026,-0.0034 -0.024,0.0068 -0.03245,0 -0.02112,-0.01689 -0.03108,-0.04437 -0.04867,-0.0649 -0.04331,-0.05053 -0.05443,-0.03454 -0.0649,-0.09735 -0.0111,-0.06659 0,-0.143949 0,-0.210919 0,-0.162695 -0.01209,0.0038 0.04867,-0.17847 0.03213,-0.09638 -0.04761,-0.0013 0.03245,-0.09735 0.01469,-0.01763 0.03841,-0.02815 0.04867,-0.04867 0.01233,-0.02466 0.0075,-0.05496 0.01622,-0.08112 0.0031,-0.07921 0.07187,-0.126756 0.09735,-0.194695 0.0057,-0.01519 -0.009,-0.03517 0,-0.04867 0.006,-0.009 0.02219,0.0034 0.03245,0 0.01845,-0.0061 0.07589,-0.05548 0.113572,-0.0649 0.05755,-0.01439 0.246445,-0.01546 0.308267,0 0.06904,-0.03197 0.01825,0.02677 0.03245,0.03245 0.0256,0.01024 0.05578,0.0054 0.08112,0.01622 0.01406,0.006 0.02163,0.02163 0.03245,0.03245 0.02704,0.02704 0.06402,0.04692 0.08112,0.08112 0.01994,0.03989 0.0077,0.09269 0.03245,0.129796 0.01082,0.01622 0.03697,0.01685 0.04867,0.03245 0.05738,0.07651 0.114169,0.274028 0.08112,0.373165 -0.0038,0.01147 -0.0077,0.0239 -0.01622,0.03245 -0.0072,0.0072 -0.05195,0.0054 -0.0649,0.01622 -0.0235,0.01958 -0.03896,0.04868 -0.0649,0.0649 -0.01891,0.01182 -0.04419,0.0079 -0.0649,0.01622 -0.02164,0.0087 -0.0908,0.08862 -0.09735,0.09735 -0.04008,0.05345 -0.09966,0.139063 -0.17847,0.178471 -0.02024,0.01012 -0.06243,-0.01246 -0.08112,0 -0.06973,0.04649 -0.0711,0.03901 -0.162246,0.01622 z"
       id="path1099" />
    <path
       style="fill:none;stroke:#000000;stroke-width:0.264583px;stroke-linecap:butt;stroke-linejoin:miter;stroke-opacity:1"
       d="m 64.775881,30.737168 c -0.194989,0.194989 0.03469,-0.0262 -0.113571,0.09735 -0.01763,0.01469 -0.03245,0.03245 -0.04867,0.04867 -0.03786,0.03786 -0.07202,0.07981 -0.113572,0.113572 -0.0454,0.03689 -0.101606,0.05928 -0.146021,0.09735 -0.03207,0.02749 -0.05125,0.06748 -0.08112,0.09735 -0.01379,0.01379 -0.03489,0.01866 -0.04867,0.03245 -0.0086,0.0086 -0.0077,0.0239 -0.01622,0.03245 -0.004,0.004 -0.08991,0.03988 -0.08112,0.04867 0.0021,0.0021 0.158727,0.01517 0.162246,0.01623 0.07542,0.02263 0.15244,0.04 0.227144,0.0649 0.0185,0.0062 0.03017,0.02628 0.04867,0.03245 0.01539,0.0051 0.03267,-0.0027 0.04867,0 0.08729,0.01455 0.173113,0.05051 0.243368,0.09735 0.02738,0.01825 0.148237,-0.005 0.178471,0 0.02448,0.0041 0.07397,0.03698 0.09735,0.04867"
       id="path1101" />
    <path
       style="fill:none;stroke:#000000;stroke-width:0.264583px;stroke-linecap:butt;stroke-linejoin:miter;stroke-opacity:1"
       d="m 63.948429,33.98208 c 0.288394,0.258752 0.280317,0.419802 0.292042,0.795003 0.002,0.06487 0.0059,0.130063 0,0.194695 -0.03707,0.407817 -0.02514,-0.0694 -0.0649,0.308267 -0.0057,0.05378 0.01114,0.109324 0,0.162245 -0.01097,0.05212 -0.04619,0.09615 -0.0649,0.146021 -0.02223,0.05927 -0.04488,0.118418 -0.0649,0.178471 -0.0034,0.01026 0.0048,0.02278 0,0.03245 -0.0068,0.01368 -0.02396,0.01972 -0.03245,0.03245 -0.01726,0.02589 -0.101367,0.239203 -0.113572,0.275817 -0.02564,0.07692 -0.07182,0.259593 -0.162245,0.259593"
       id="path1103" />
    <path
       style="fill:none;stroke:#000000;stroke-width:0.264583px;stroke-linecap:butt;stroke-linejoin:miter;stroke-opacity:1"
       d="m 65.619559,34.290347 c -0.01032,0.0855 -0.08879,0.13657 -0.113572,0.210919 -0.01807,0.0542 0.01614,0.05698 -0.01623,0.129796 -0.01098,0.02471 -0.03658,0.04071 -0.04867,0.0649 -0.03876,0.07753 -0.04846,0.177394 -0.0649,0.259593 -0.01449,0.07244 -0.0649,0.115686 -0.0649,0.194695 0,0.0171 0.01342,0.0318 0.01622,0.04867 0.02446,0.146762 -0.01481,0.306207 0,0.454288 0.01905,0.190482 0.0096,-0.06581 0.04867,0.129796 0,0.326726 -0.018,-0.05577 0.03245,0.146021 0.01312,0.05247 -0.01173,0.109452 0,0.162246 0.0052,0.02361 0.02812,0.0411 0.03245,0.0649 0.01007,0.05537 -0.0066,0.153767 0.01623,0.210919 0.0057,0.0142 0.02396,0.01972 0.03245,0.03245 0.03379,0.05068 -0.02951,0.0649 0.0649,0.0649"
       id="path1105" />
    <path
       style="fill:none;stroke:#000000;stroke-width:0.264583px;stroke-linecap:butt;stroke-linejoin:miter;stroke-opacity:1"
       d="m 68.539979,30.591147 c 0.05642,-0.02045 0.149341,-0.242115 0.17847,-0.259593 0.108744,-0.06525 0.314454,-0.04249 0.405614,0.04867 0.01379,0.01379 0.01658,0.03734 0.03245,0.04867 0.0237,0.01693 0.05782,0.01498 0.08112,0.03245 0.02163,0.01623 0.02814,0.0473 0.04867,0.0649 0.04346,0.03725 0.0876,0.02052 0.113572,0.08112 0.0085,0.01988 -0.0074,0.04457 0,0.0649 0.0149,0.04098 0.05208,0.0719 0.0649,0.113572 0.0095,0.03102 -0.0058,0.06542 0,0.09735 0.0052,0.02865 0.02802,0.05234 0.03245,0.08112 0.03072,0.199677 0.0019,0.499476 -0.09735,0.681431 -0.01658,0.0304 -0.04832,0.05072 -0.0649,0.08112 -0.03522,0.06458 -0.02076,0.152072 -0.0649,0.210919 -0.02118,0.02824 -0.168598,0.02919 -0.194695,0.03245 -0.08964,0.01121 -0.139223,0.05722 -0.210919,0.08112 -0.0158,0.0053 -0.125328,0.0045 -0.129797,0 -0.0038,-0.0038 0.0053,-0.01516 0,-0.01622 -0.02565,-0.0051 -0.299365,0.0089 -0.308267,0 -0.02163,-0.02163 0.02704,-0.01622 -0.01622,-0.01622"
       id="path1107" />
    <path
       style="fill:none;stroke:#000000;stroke-width:0.264583px;stroke-linecap:butt;stroke-linejoin:miter;stroke-opacity:1"
       d="m 62.24485,30.136859 c 0,-0.0914 0.0082,-0.171493 -0.03245,-0.259593 -0.10007,-0.216817 -0.02876,-0.03872 -0.08112,-0.0649 -0.06167,-0.03083 0.07084,-0.0099 -0.0649,-0.04867 -0.06423,-0.01835 -0.140036,0.0051 -0.194695,0.03245 -0.13279,0.06639 -0.290184,0.101517 -0.405614,0.178471 -0.009,0.006 -0.0238,-0.0065 -0.03245,0 -0.03989,0.02992 -0.07325,0.06802 -0.113572,0.09735 -0.07986,0.05808 -0.09961,8.2e-4 -0.162246,0.113572 -0.01051,0.01891 0.0062,0.04418 0,0.0649 -0.01176,0.0392 -0.08559,0.123046 -0.09735,0.162245 -0.0093,0.03108 0.0079,0.06587 0,0.09735 -0.0037,0.01484 -0.02396,0.01972 -0.03245,0.03245 -0.01749,0.02624 -0.03457,0.05292 -0.04867,0.08112 -0.0081,0.01622 0.0041,0.03245 0,0.04867 -0.0041,0.01659 -0.01341,0.0318 -0.01622,0.04867 -0.01085,0.06511 0.005,0.214671 0.0649,0.259593 0.01368,0.01026 0.03499,0.006 0.04867,0.01622 0.0097,0.0073 0.0077,0.0239 0.01622,0.03245 0.01379,0.01379 0.03369,0.01997 0.04867,0.03245 0.03012,0.0251 0.05707,0.0677 0.09735,0.08112 0.01539,0.0051 0.03361,-0.006 0.04867,0 0.02511,0.01004 0.022,0.06045 0.04867,0.0649 0.0272,0.0045 0.05355,-0.01622 0.08112,-0.01622 0.09537,0 0.09598,0.04446 0.178471,0.08112 0.09735,0.04327 0.03245,-0.02163 0.09735,0 0.0073,0.0024 0.01082,0.01082 0.01622,0.01623 0.02163,0.0054 0.04277,0.01346 0.0649,0.01622 0.02683,0.0034 0.062,-0.01912 0.08112,0 0.0038,0.0038 -0.0038,0.0124 0,0.01622 0.02337,0.02337 0.115231,-0.0154 0.146021,0 0.0048,0.0024 0,0.01082 0,0.01622"
       id="path1109" />
    <path
       style="fill:none;stroke:#000000;stroke-width:0.264583px;stroke-linecap:butt;stroke-linejoin:miter;stroke-opacity:1"
       d="m 68.686,31.02921 c 0.03245,-0.02163 0.06135,-0.0499 0.09735,-0.0649 0.01028,-0.0043 0.240928,-0.05801 0.259593,-0.04867 0.009,0.0045 -0.002,0.133798 0,0.146021 0.0043,0.02597 0.02615,0.07215 0.03245,0.09735 0.03343,0.133722 -0.102413,0.270239 -0.210919,0.324492 -0.01576,0.0079 -0.104276,0.0139 -0.113572,0.01622"
       id="path1165" />
    <path
       style="fill:none;stroke:#000000;stroke-width:0.264583px;stroke-linecap:butt;stroke-linejoin:miter;stroke-opacity:1"
       d="m 61.985257,30.428901 c 0,-0.145947 0.0153,-0.03346 -0.162246,-0.227144 -0.0082,-0.0089 -0.0054,-0.02704 -0.01622,-0.03245 -0.08882,-0.04441 -0.319373,0.09961 -0.405614,0.129797 -0.07647,0.02676 -0.232813,0.05395 -0.17847,0.08112 0.01935,0.0097 0.04368,-0.0042 0.0649,0 0.06597,0.01319 0.172811,0.05388 0.227144,0.09735 0.0094,0.0076 0.0066,0.02519 0.01622,0.03245 0.04042,0.03032 0.108907,0.01156 0.146021,0.04867 0.01252,0.01252 -0.02467,0.08823 -0.01622,0.113571 0.0017,0.0051 0.0124,-0.0038 0.01622,0 0.01912,0.01912 -0.0086,0.05547 0,0.08112 0.0048,0.01451 0.02163,0.02163 0.03245,0.03245 0.0054,0.01622 0.01082,0.03245 0.01622,0.04867"
       id="path1167" />
    <path
       style="fill:none;stroke:#000000;stroke-width:0.264583px;stroke-linecap:butt;stroke-linejoin:miter;stroke-opacity:1"
       d="m 66.106295,28.660424 c 0.08691,-0.05553 0.142001,-0.02402 0.243369,-0.01622 0.07055,0.0054 0.190559,-0.0021 0.259593,0.03245 0.012,0.006 0.04503,0.06307 0.04867,0.0649 0.03588,0.01794 0.04567,-0.01923 0.08112,0.01622 0.01516,0.01516 0.05389,0.08373 0.08112,0.09735 0.01586,0.0079 0.07527,-0.0117 0.08112,0 0.02105,0.04209 -0.03288,0.04867 0.03245,0.04867"
       id="path1169" />
    <path
       style="fill:none;stroke:#000000;stroke-width:0.264583px;stroke-linecap:butt;stroke-linejoin:miter;stroke-opacity:1"
       d="m 63.70506,28.773996 c -0.117116,0.07206 -0.243089,0.135019 -0.35694,0.210919 -0.02434,0.01622 -0.01622,0.03245 -0.04867,0.04867 -0.01834,0.0092 -0.07657,0.01167 -0.09735,0.03245 -0.03069,0.03069 -0.129797,0.162749 -0.129797,0.194695"
       id="path1171" />
  </g>
</svg>
