<?xml version="1.0" standalone="no"?>
<!DOCTYPE svg PUBLIC "-//W3C//DTD SVG 20010904//EN" "http://www.w3.org/TR/2001/REC-SVG-20010904/DTD/svg10.dtd">
<!-- Created using Krita: https://krita.org -->
<svg xmlns="http://www.w3.org/2000/svg" 
    xmlns:xlink="http://www.w3.org/1999/xlink"
    xmlns:krita="http://krita.org/namespaces/svg/krita"
    xmlns:sodipodi="http://sodipodi.sourceforge.net/DTD/sodipodi-0.dtd"
    width="124.32pt"
    height="143.52pt"
    viewBox="0 0 124.32 143.52">
<defs/>
<path id="shape0" transform="translate(33.9411268170152, 46.3310653979395)" fill="none" stroke="#151210" stroke-width="0.876000504" stroke-linecap="square" stroke-linejoin="bevel" d="M4.75176 12.5568C4.29085 12.5568 0 14.1562 0 12.8962C0 2.86423 9.50352 -6.67377 9.50352 6.27768C9.50352 7.01681 9.59003 10.7316 8.9944 11.0294C7.31828 11.8675 5.90748 13.575 2.885 13.575"/><path id="shape1" transform="translate(50.2709505967253, 43.640876153442)" fill="none" stroke="#151210" stroke-width="0.876000504" stroke-linecap="square" stroke-linejoin="bevel" d="M4.37426 14.2287C-6.17956 14.2287 5.32471 -2.4702 8.10779 0.312883C13.6971 5.90221 12.2103 14.2287 2.84691 14.2287"/><path id="shape2" transform="translate(31.3955423057391, 59.7363831979468)" fill="none" stroke="#151210" stroke-width="0.876000504" stroke-linecap="square" stroke-linejoin="bevel" d="M0 1.01823C0 16.9261 32.9229 17.0037 32.9229 0"/><path id="shape3" transform="translate(15.6268440404527, 24.0936381850747)" fill="none" stroke="#151210" stroke-width="0.876000504" stroke-linecap="square" stroke-linejoin="bevel" d="M39.0184 63.8139C-18.4295 63.8139 -8.19313 -6.66721 42.0731 0.513679C76.6176 5.44861 69.5095 64.6624 36.8122 64.6624"/><path id="shape4" transform="translate(78.2342973132201, 46.4879441797966)" fill="none" stroke="#151210" stroke-width="0.876000504" stroke-linecap="square" stroke-linejoin="bevel" d="M2.03647 4.93286C2.03647 -1.47021 12.3885 -2.37381 12.3885 6.62992C12.3885 12.1592 0 12.1315 0 17.6608"/><path id="shape5" transform="translate(8.70032524279283, 49.8606604440657)" fill="none" stroke="#151210" stroke-width="0.876000504" stroke-linecap="square" stroke-linejoin="bevel" d="M6.40348 1.22074C6.40348 -4.46817 -8.97416 11.5728 7.93083 11.5728"/><path id="shape6" transform="translate(36.1473000601212, 85.8710508470485)" fill="none" stroke="#151210" stroke-width="0.876000504" stroke-linecap="square" stroke-linejoin="bevel" d="M4.58205 0C13.4366 0 0 28.1932 0 29.3591"/><path id="shape7" transform="translate(48.8234437253106, 88.6912385474493)" fill="none" stroke="#151210" stroke-width="0.876000504" stroke-linecap="square" stroke-linejoin="bevel" d="M3.6156 0.0648081C2.32735 -1.5455 -3.83254 27.3874 3.6156 27.3874"/><path id="shape8" transform="translate(37.0778476256456, 46.1599324711407)" fill="none" stroke="#151210" stroke-width="0.876000504" stroke-linecap="square" stroke-linejoin="bevel" d="M3.82121 0C3.82121 2.44552 -3.02981 10.4055 1.61504 12.7279"/><path id="shape9" transform="translate(55.9189221348275, 43.6143479598645)" fill="none" stroke="#151210" stroke-width="0.876000504" stroke-linecap="square" stroke-linejoin="bevel" d="M1.78099 0C1.78099 1.41817 -2.33709 13.4067 1.9507 13.4067"/><path id="shape10" transform="translate(40.158617641871, 57.8696212230109)" fill="none" stroke="#151210" stroke-width="0.876000504" stroke-linecap="square" stroke-linejoin="bevel" d="M6.17102 0C-2.27023 4.22063 -2.00473 6.44881 6.68014 6.44881"/>
</svg>
