<?xml version="1.0" encoding="UTF-8" standalone="no" ?>
<!DOCTYPE svg PUBLIC "-//W3C//DTD SVG 1.1//EN" "http://www.w3.org/Graphics/SVG/1.1/DTD/svg11.dtd">
<svg xmlns="http://www.w3.org/2000/svg" xmlns:xlink="http://www.w3.org/1999/xlink" version="1.1" width="1080" height="1080" viewBox="0 0 1080 1080" xml:space="preserve">
<desc>Created with Fabric.js 4.2.0</desc>
<defs>
</defs>
<rect x="0" y="0" width="100%" height="100%" fill="transparent"></rect>
<g transform="matrix(1 0 0 1 540 540)" id="c93db52b-2564-4999-a1bd-5f46d3de0e2b"  >
<rect style="stroke: none; stroke-width: 1; stroke-dasharray: none; stroke-linecap: butt; stroke-dashoffset: 0; stroke-linejoin: miter; stroke-miterlimit: 4; fill: rgb(255,255,255); fill-rule: nonzero; opacity: 1;" vector-effect="non-scaling-stroke"  x="-540" y="-540" rx="0" ry="0" width="1080" height="1080" />
</g>
<g transform="matrix(1 0 0 1 540 540)" id="daff2107-408d-4967-b61e-86fea2f2b568"  >
</g>
<g transform="matrix(1 0 0 1 290.25 244.48)"  >
<path style="stroke: rgb(0,0,0); stroke-width: 30; stroke-dasharray: none; stroke-linecap: round; stroke-dashoffset: 0; stroke-linejoin: round; stroke-miterlimit: 10; fill: none; fill-rule: nonzero; opacity: 1;" vector-effect="non-scaling-stroke"  transform=" translate(-290.25, -244.48)" d="M 311.37375 182.86687156677246 Q 311.34375 182.89687156677246 310.5 182.89687156677246 Q 309.65625 182.89687156677246 301.21875 185.42812156677246 Q 292.78125 187.95937156677246 282.65625 191.33437156677246 Q 272.53125 194.70937156677246 263.25 198.08437156677246 Q 253.96875 201.45937156677246 249.75 203.14687156677246 Q 245.53125 204.83437156677246 245.53125 205.67812156677246 Q 245.53125 206.52187156677246 245.53125 207.36562156677246 Q 245.53125 208.20937156677246 244.6875 209.89687156677246 Q 243.84375 211.58437156677246 242.15625 215.80312156677246 Q 240.46875 220.02187156677246 239.625 224.24062156677246 Q 238.78125 228.45937156677246 237.9375 230.99062156677246 Q 237.09375 233.52187156677246 237.09375 236.89687156677246 Q 237.09375 240.27187156677246 236.25 241.95937156677246 Q 235.40625 243.64687156677246 235.40625 246.17812156677246 Q 235.40625 248.70937156677246 235.40625 252.92812156677246 Q 235.40625 257.14687156677246 236.25 262.20937156677246 Q 237.09375 267.27187156677246 237.9375 270.64687156677246 Q 238.78125 274.02187156677246 238.78125 274.86562156677246 Q 238.78125 275.70937156677246 239.625 275.70937156677246 Q 240.46875 275.70937156677246 240.46875 276.55312156677246 Q 240.46875 277.39687156677246 241.3125 277.39687156677246 Q 242.15625 277.39687156677246 243 277.39687156677246 Q 243.84375 277.39687156677246 246.375 278.24062156677246 Q 248.90625 279.08437156677246 251.4375 280.77187156677246 Q 253.96875 282.45937156677246 257.34375 283.30312156677246 Q 260.71875 284.14687156677246 262.40625 285.83437156677246 Q 264.09375 287.52187156677246 267.46875 288.36562156677246 Q 270.84375 289.20937156677246 272.53125 291.74062156677246 Q 274.21875 294.27187156677246 277.59375 296.80312156677246 Q 280.96875 299.33437156677246 283.5 301.86562156677246 Q 286.03125 304.39687156677246 286.875 305.24062156677246 Q 287.71875 306.08437156677246 288.5625 306.08437156677246 Q 289.40625 306.08437156677246 290.25 306.08437156677246 Q 291.09375 306.08437156677246 294.46875 305.24062156677246 Q 297.84375 304.39687156677246 300.375 302.70937156677246 Q 302.90625 301.02187156677246 307.96875 298.49062156677246 Q 313.03125 295.95937156677246 314.71875 295.11562156677246 Q 316.40625 294.27187156677246 318.09375 293.42812156677246 Q 319.78125 292.58437156677246 320.625 290.89687156677246 Q 321.46875 289.20937156677246 323.15625 287.52187156677246 Q 324.84375 285.83437156677246 326.53125 283.30312156677246 Q 328.21875 280.77187156677246 329.0625 278.24062156677246 Q 329.90625 275.70937156677246 331.59375 272.33437156677246 Q 333.28125 268.95937156677246 334.96875 263.89687156677246 Q 336.65625 258.83437156677246 339.1875 252.92812156677246 Q 341.71875 247.02187156677246 342.5625 242.80312156677246 Q 343.40625 238.58437156677246 344.25 237.74062156677246 Q 345.09375 236.89687156677246 345.09375 235.20937156677246 Q 345.09375 233.52187156677246 345.09375 229.30312156677246 Q 345.09375 225.08437156677246 345.09375 219.17812156677246 Q 345.09375 213.27187156677246 345.09375 207.36562156677246 Q 345.09375 201.45937156677246 345.09375 198.92812156677246 Q 345.09375 196.39687156677246 345.09375 195.55312156677246 Q 345.09375 194.70937156677246 344.25 194.70937156677246 Q 343.40625 194.70937156677246 342.5625 194.70937156677246 Q 341.71875 194.70937156677246 339.1875 193.02187156677246 Q 336.65625 191.33437156677246 334.96875 191.33437156677246 Q 333.28125 191.33437156677246 331.59375 191.33437156677246 Q 329.90625 191.33437156677246 327.375 191.33437156677246 Q 324.84375 191.33437156677246 323.15625 191.33437156677246 Q 321.46875 191.33437156677246 319.78125 190.49062156677246 L 318.06375 189.61687156677246" stroke-linecap="round" />
</g>
<g transform="matrix(1 0 0 1 678.38 280.77)"  >
<path style="stroke: rgb(0,0,0); stroke-width: 30; stroke-dasharray: none; stroke-linecap: round; stroke-dashoffset: 0; stroke-linejoin: round; stroke-miterlimit: 10; fill: none; fill-rule: nonzero; opacity: 1;" vector-effect="non-scaling-stroke"  transform=" translate(-678.38, -280.77)" d="M 750.12375 220.05187156677246 Q 750.09375 220.02187156677246 750.09375 219.17812156677246 Q 750.09375 218.33437156677246 748.40625 217.49062156677246 Q 746.71875 216.64687156677246 745.875 216.64687156677246 Q 745.03125 216.64687156677246 744.1875 216.64687156677246 Q 743.34375 216.64687156677246 736.59375 215.80312156677246 Q 729.84375 214.95937156677246 714.65625 213.27187156677246 Q 699.46875 211.58437156677246 680.90625 209.05312156677246 Q 662.34375 206.52187156677246 648.84375 205.67812156677246 Q 635.34375 204.83437156677246 628.59375 204.83437156677246 Q 621.84375 204.83437156677246 619.3125 207.36562156677246 Q 616.78125 209.89687156677246 615.9375 210.74062156677246 Q 615.09375 211.58437156677246 612.5625 214.11562156677246 Q 610.03125 216.64687156677246 607.5 220.86562156677246 Q 604.96875 225.08437156677246 603.28125 228.45937156677246 Q 601.59375 231.83437156677246 599.90625 235.20937156677246 Q 598.21875 238.58437156677246 596.53125 244.49062156677246 Q 594.84375 250.39687156677246 594.84375 254.61562156677246 Q 594.84375 258.83437156677246 594.84375 263.05312156677246 Q 594.84375 267.27187156677246 594.84375 270.64687156677246 Q 594.84375 274.02187156677246 596.53125 276.55312156677246 Q 598.21875 279.08437156677246 599.0625 283.30312156677246 Q 599.90625 287.52187156677246 601.59375 293.42812156677246 Q 603.28125 299.33437156677246 605.8125 303.55312156677246 Q 608.34375 307.77187156677246 611.71875 311.99062156677246 Q 615.09375 316.20937156677246 616.78125 321.27187156677246 Q 618.46875 326.33437156677246 621 329.70937156677246 Q 623.53125 333.08437156677246 625.21875 336.45937156677246 Q 626.90625 339.83437156677246 629.4375 340.67812156677246 Q 631.96875 341.52187156677246 635.34375 343.20937156677246 Q 638.71875 344.89687156677246 642.9375 347.42812156677246 Q 647.15625 349.95937156677246 652.21875 351.64687156677246 Q 657.28125 353.33437156677246 658.96875 354.17812156677246 Q 660.65625 355.02187156677246 662.34375 355.86562156677246 Q 664.03125 356.70937156677246 664.875 356.70937156677246 Q 665.71875 356.70937156677246 669.09375 356.70937156677246 Q 672.46875 356.70937156677246 678.375 355.02187156677246 Q 684.28125 353.33437156677246 691.875 350.80312156677246 Q 699.46875 348.27187156677246 707.0625 344.05312156677246 Q 714.65625 339.83437156677246 723.09375 335.61562156677246 Q 731.53125 331.39687156677246 735.75 328.86562156677246 Q 739.96875 326.33437156677246 741.65625 324.64687156677246 Q 743.34375 322.95937156677246 743.34375 321.27187156677246 Q 743.34375 319.58437156677246 745.03125 317.05312156677246 Q 746.71875 314.52187156677246 748.40625 309.45937156677246 Q 750.09375 304.39687156677246 752.625 297.64687156677246 Q 755.15625 290.89687156677246 755.15625 287.52187156677246 Q 755.15625 284.14687156677246 755.15625 282.45937156677246 Q 755.15625 280.77187156677246 756 279.92812156677246 Q 756.84375 279.08437156677246 756.84375 278.24062156677246 Q 756.84375 277.39687156677246 758.53125 275.70937156677246 Q 760.21875 274.02187156677246 760.21875 270.64687156677246 Q 760.21875 267.27187156677246 760.21875 263.89687156677246 Q 760.21875 260.52187156677246 761.0625 259.67812156677246 Q 761.90625 258.83437156677246 761.90625 256.30312156677246 Q 761.90625 253.77187156677246 761.90625 250.39687156677246 Q 761.90625 247.02187156677246 761.90625 243.64687156677246 Q 761.90625 240.27187156677246 761.90625 237.74062156677246 Q 761.90625 235.20937156677246 761.90625 233.52187156677246 Q 761.90625 231.83437156677246 761.90625 230.99062156677246 Q 761.90625 230.14687156677246 761.0625 230.14687156677246 Q 760.21875 230.14687156677246 759.375 229.30312156677246 Q 758.53125 228.45937156677246 757.6875 228.45937156677246 L 756.81375 228.45937156677246" stroke-linecap="round" />
</g>
<g transform="matrix(1 0 0 1 514.69 530.4)"  >
<path style="stroke: rgb(0,0,0); stroke-width: 30; stroke-dasharray: none; stroke-linecap: round; stroke-dashoffset: 0; stroke-linejoin: round; stroke-miterlimit: 10; fill: none; fill-rule: nonzero; opacity: 1;" vector-effect="non-scaling-stroke"  transform=" translate(-514.69, -530.4)" d="M 117.28125 366.8043715667725 Q 117.28125 366.83437156677246 117.28125 367.67812156677246 Q 117.28125 368.52187156677246 117.28125 369.36562156677246 Q 117.28125 370.20937156677246 117.28125 373.58437156677246 Q 117.28125 376.95937156677246 118.125 381.17812156677246 Q 118.96875 385.39687156677246 118.96875 391.30312156677246 Q 118.96875 397.20937156677246 119.8125 403.95937156677246 Q 120.65625 410.70937156677246 120.65625 414.92812156677246 Q 120.65625 419.14687156677246 120.65625 422.52187156677246 Q 120.65625 425.89687156677246 121.5 430.11562156677246 Q 122.34375 434.33437156677246 124.03125 440.24062156677246 Q 125.71875 446.14687156677246 128.25 452.89687156677246 Q 130.78125 459.64687156677246 132.46875 466.39687156677246 Q 134.15625 473.14687156677246 135 475.67812156677246 Q 135.84375 478.20937156677246 137.53125 480.74062156677246 Q 139.21875 483.27187156677246 140.90625 485.80312156677246 Q 142.59375 488.33437156677246 145.125 493.39687156677246 Q 147.65625 498.45937156677246 154.40625 504.36562156677246 Q 161.15625 510.27187156677246 166.21875 517.8656215667725 Q 171.28125 525.4593715667725 177.1875 529.6781215667725 Q 183.09375 533.8968715667725 187.3125 538.1156215667725 Q 191.53125 542.3343715667725 195.75 545.7093715667725 Q 199.96875 549.0843715667725 205.875 554.1468715667725 Q 211.78125 559.2093715667725 221.90625 565.1156215667725 Q 232.03125 571.0218715667725 247.21875 581.9906215667725 Q 262.40625 592.9593715667725 276.75 601.3968715667725 Q 291.09375 609.8343715667725 303.75 616.5843715667725 Q 316.40625 623.3343715667725 327.375 629.2406215667725 Q 338.34375 635.1468715667725 349.3125 641.8968715667725 Q 360.28125 648.6468715667725 373.78125 656.2406215667725 Q 387.28125 663.8343715667725 401.625 669.7406215667725 Q 415.96875 675.6468715667725 426.09375 679.0218715667725 Q 436.21875 682.3968715667725 443.8125 684.0843715667725 Q 451.40625 685.7718715667725 454.78125 685.7718715667725 Q 458.15625 685.7718715667725 462.375 686.6156215667725 Q 466.59375 687.4593715667725 475.03125 688.3031215667725 Q 483.46875 689.1468715667725 499.5 690.8343715667725 Q 515.53125 692.5218715667725 540.84375 693.3656215667725 Q 566.15625 694.2093715667725 593.15625 693.3656215667725 Q 620.15625 692.5218715667725 641.25 691.6781215667725 Q 662.34375 690.8343715667725 674.15625 689.1468715667725 Q 685.96875 687.4593715667725 691.875 686.6156215667725 Q 697.78125 685.7718715667725 702 683.2406215667725 Q 706.21875 680.7093715667725 713.8125 677.3343715667725 Q 721.40625 673.9593715667725 730.6875 670.5843715667725 Q 739.96875 667.2093715667725 750.09375 663.8343715667725 Q 760.21875 660.4593715667725 769.5 657.0843715667725 Q 778.78125 653.7093715667725 789.75 648.6468715667725 Q 800.71875 643.5843715667725 810 640.2093715667725 Q 819.28125 636.8343715667725 826.875 633.4593715667725 Q 834.46875 630.0843715667725 842.0625 625.0218715667725 Q 849.65625 619.9593715667725 856.40625 614.0531215667725 Q 863.15625 608.1468715667725 869.0625 603.0843715667725 Q 874.96875 598.0218715667725 880.03125 592.1156215667725 Q 885.09375 586.2093715667725 889.3125 581.1468715667725 Q 893.53125 576.0843715667725 896.90625 571.8656215667725 Q 900.28125 567.6468715667725 901.96875 562.5843715667725 Q 903.65625 557.5218715667725 904.5 551.6156215667725 Q 905.34375 545.7093715667725 907.875 540.6468715667725 Q 910.40625 535.5843715667725 910.40625 531.3656215667725 Q 910.40625 527.1468715667725 911.25 523.7718715667725 Q 912.09375 520.3968715667725 912.09375 518.7093715667725 L 912.09375 516.9918715667725" stroke-linecap="round" />
</g>
</svg>