<svg xmlns="http://www.w3.org/2000/svg" xmlns:se="http://svg-edit.googlecode.com" xmlns:xlink="http://www.w3.org/1999/xlink" xmlns:dc="http://purl.org/dc/elements/1.1/" xmlns:cc="http://creativecommons.org/ns#" xmlns:rdf="http://www.w3.org/1999/02/22-rdf-syntax-ns#" xmlns:inkscape="http://www.inkscape.org/namespaces/inkscape" width="777" height="480">                                    <title>my vector image</title>                                    <!-- Created with Vector Paint - http://www.vectorpaint.yaks.com/ https://chrome.google.com/webstore/detail/hnbpdiengicdefcjecjbnjnoifekhgdo -->                                    <rect id="backgroundrect" width="100%" height="100%" x="0" y="0" fill="#FFFFFF" stroke="none"/>                                <g class="currentLayer" style=""><title>Layer 1</title><polyline fill="none" stroke="#222222" style="color: rgb(0, 0, 0);" stroke-width="2" stroke-linejoin="round" stroke-dashoffset="" fill-rule="nonzero" marker-start="" marker-mid="" marker-end="" id="svg_1" points="357.4795830845833,259.61291801929474 357.4795830845833,260.15055245161057 356.40431421995163,260.15055245161057 355.8666797876358,260.15055245161057 354.2537764906883,260.6881868839264 352.103238761425,260.6881868839264 351.5656043291092,260.6881868839264 351.02796989679337,260.6881868839264 348.87743216753006,261.2258213162422 347.8021633028984,261.2258213162422 345.1139911413193,261.2258213162422 343.5010878443718,261.76345574855804 342.42581897974014,261.76345574855804 341.8881845474243,261.76345574855804 339.2000123858452,260.6881868839264 334.8989369273186,260.6881868839264 328.9849581718445,260.15055245161057 323.6086138486862,258.5376491546631 321.4580761194229,257.46238029003143 318.7699039578438,258.00001472234726 316.6193662285805,256.9247458577156 313.3935596346856,256.9247458577156 311.78065633773804,255.31184256076813 309.63011860847473,254.23657369613647 308.01721531152725,254.23657369613647 306.9419464468956,253.69893926382068 305.86667758226395,252.623670399189 302.640870988369,251.01076710224152 299.41506439447403,248.32259494066238 296.7268922328949,246.17205721139908 295.1139889359474,244.02151948213577 292.9634512066841,242.94625061750412 291.35054790973663,241.33334732055664 289.73764461278915,239.72044402360916 287.58710688352585,238.1075407266617 286.51183801889414,238.1075407266617 284.8989347219467,236.4946374297142 283.28603142499924,234.3440997004509 280.0602248311043,230.5806586742401 278.9849559664726,228.96775537729263 277.37205266952515,226.8172176480293 276.2967838048935,225.20431435108185 275.22151494026184,223.59141105413437 274.1462460756302,219.82797002792358 273.07097721099854,216.60216343402863 270.92043948173523,213.37635684013367 269.8451706171036,210.1505502462387 268.7699017524719,205.31184035539627 267.69463288784027,202.0860337615013 267.69463288784027,198.86022716760635 266.0817295908928,194.02151727676392 265.54409515857697,189.7204418182373 265.54409515857697,184.88173192739487 265.54409515857697,180.04302203655246 265.00646072626114,176.27958101034164 265.00646072626114,172.51613998413086 265.00646072626114,169.2903333902359 265.00646072626114,167.1397956609726 265.00646072626114,163.91398906707764 265.00646072626114,161.2258169054985 266.0817295908928,159.0752791762352 266.0817295908928,155.84947258234024 266.6193640232086,151.54839712381363 268.2322673201561,147.24732166528702 269.30753618478775,142.9462462067604 270.92043948173523,140.7957084774971 272.5333427786827,137.56990188360214 273.07097721099854,136.4946330189705 274.683880507946,133.26882642507553 276.2967838048935,130.5806542634964 278.4473215341568,125.74194437265396 281.67312812805176,120.90323448181152 283.82366585731506,117.67742788791656 285.97420358657837,114.4516212940216 287.04947245121,112.83871799707413 290.275279045105,109.07527697086334 291.88818234205246,106.92473924160002 294.5763545036316,104.2365670800209 295.1139889359474,104.2365670800209 296.18925780057907,103.69893264770508 297.2645266652107,103.69893264770508 298.3397955298424,102.62366378307343 301.0279676914215,101.01076048612595 302.640870988369,100.47312605381012 306.4043120145798,98.86022275686264 310.16775304079056,97.78495389223099 313.3935596346856,96.17205059528351 316.6193662285805,94.55914729833603 319.3075383901596,93.48387843370438 323.6086138486862,91.33334070444108 327.372054874897,90.25807183980942 330.06022703647614,90.25807183980942 332.74839919805527,90.25807183980942 335.9742057919502,90.25807183980942 337.5871090888977,89.72043740749359 339.737646818161,89.72043740749359 341.3505501151085,89.72043740749359 342.96345341205597,89.72043740749359 345.1139911413193,89.72043740749359 347.8021633028984,90.79570627212524 349.9527010321617,90.25807183980942 353.17850762605667,90.25807183980942 355.32904535532,90.25807183980942 358.01721751689917,90.79570627212524 360.70538967847824,90.79570627212524 364.468830704689,90.79570627212524 367.694637298584,90.79570627212524 369.30754059553146,91.33334070444108 370.92044389247894,92.40860956907271 373.6086160540581,92.40860956907271 375.7591537833213,92.94624400138855 378.98496037721634,92.94624400138855 382.7484014034271,93.48387843370438 387.04947686195374,93.48387843370438 389.200014591217,95.63441616296768 390.8129178881645,95.63441616296768 391.8881867527962,96.17205059528351 393.50109004974365,97.78495389223099 396.1892622113228,98.86022275686264 396.7268966436386,98.86022275686264 397.80216550827026,98.86022275686264 397.80216550827026,99.39785718917847 398.3397999405861,99.39785718917847 398.3397999405861,99.9354916214943 399.95270323753357,101.01076048612595 401.0279721021652,101.54839491844177 402.1032409667969,101.54839491844177 402.64087539911276,101.54839491844177 403.71614426374435,102.62366378307343 404.791413128376,104.2365670800209 407.47958528995514,105.31183594465256 408.5548541545868,105.8494703769684 410.16775745153427,105.8494703769684 410.7053918838501,106.92473924160002 411.78066074848175,108.00000810623169 413.93119847774506,108.53764253854752 415.54410177469254,109.07527697086334 415.54410177469254,109.61291140317917 416.6193706393242,110.150545835495 418.23227393627167,111.22581470012665 420.9204460978508,111.76344913244247 421.99571496248245,112.3010835647583 423.0709838271141,113.37635242938995 424.14625269174576,114.4516212940216 425.2215215563774,114.98925572633743 426.29679042100906,114.98925572633743 428.44732815027237,116.06452459096909 431.1355003118515,117.67742788791656 432.748403608799,118.21506232023239 433.2860380411148,118.21506232023239 434.36130690574646,118.21506232023239 434.36130690574646,118.75269675254822 435.4365757703781,119.29033118486404 436.51184463500977,120.36560004949571 438.66238236427307,121.44086891412734 439.7376512289047,121.44086891412734 440.27528566122055,121.97850334644318 440.8129200935364,122.516137778759 440.8129200935364,123.59140664339066 442.42582339048386,125.20430994033813 444.57636111974716,126.27957880496979 445.6516299843788,127.89248210191727 446.72689884901047,127.89248210191727 447.8021677136421,129.50538539886475 449.9527054429054,132.19355756044388 451.0279743075371,133.26882642507553 452.64087760448456,135.95699858665466 453.1785120368004,137.56990188360214 453.7161464691162,138.10753631591797 455.3290497660637,140.25807404518127 455.8666841983795,142.9462462067604 457.479587495327,145.63441836833954 458.0172219276428,146.17205280065536 459.0924907922745,149.39785939455032 459.0924907922745,151.01076269149777 460.1677596569061,153.69893485307693 460.705394089222,156.9247414469719 460.705394089222,158.53764474391937 462.31829738616943,162.30108577013016 462.31829738616943,164.4516234993935 462.31829738616943,166.60216122865674 462.31829738616943,168.75269895792007 462.31829738616943,169.82796782255173 462.31829738616943,171.97850555181503 463.3935662508011,174.12904328107834 463.3935662508011,176.81721544265747 463.9312006831169,180.04302203655246 463.9312006831169,183.2688286304474 463.9312006831169,186.49463522434235 463.9312006831169,188.10753852128983 463.9312006831169,190.25807625055313 462.85593181848526,192.40861397981644 462.85593181848526,194.02151727676392 462.85593181848526,195.63442057371137 462.85593181848526,197.24732387065887 461.7806629538536,198.86022716760635 461.7806629538536,201.5483993291855 461.7806629538536,203.6989370584488 461.2430285215378,204.77420592308044 461.2430285215378,205.8494747877121 460.705394089222,206.92474365234375 458.55485635995865,209.07528138160708 458.0172219276428,210.68818467855453 458.0172219276428,212.83872240781784 456.94195306301117,215.52689456939697 455.8666841983795,217.13979786634445 455.3290497660637,218.75270116329193 454.79141533374786,220.3656044602394 454.25378090143204,221.9785077571869 453.1785120368004,224.66667991876605 452.64087760448456,226.2795832157135 450.49033987522125,227.89248651266098 449.4150710105896,230.5806586742401 448.8774365782738,231.11829310655594 448.33980214595795,232.1935619711876 448.33980214595795,232.73119640350342 447.8021677136421,232.73119640350342 447.26453328132635,233.80646526813507 446.18926441669464,234.88173413276672 445.113995552063,235.95700299739838 444.57636111974716,236.4946374297142 444.57636111974716,237.03227186203003 444.03872668743134,237.56990629434586 442.9634578227997,238.6451751589775 441.88818895816803,239.72044402360916 440.8129200935364,240.7957128882408 440.8129200935364,241.33334732055664 440.27528566122055,241.33334732055664 439.7376512289047,242.4086161851883 438.66238236427307,242.94625061750412 438.12474793195724,242.94625061750412 437.0494790673256,244.02151948213577 434.8989413380623,245.09678834676743 434.8989413380623,245.63442277908325 434.36130690574646,245.63442277908325 434.36130690574646,246.17205721139908 433.8236724734306,246.17205721139908 432.748403608799,247.24732607603073 431.1355003118515,247.78496050834656 430.06023144721985,248.32259494066238 429.5225970149041,248.32259494066238 429.5225970149041,248.8602293729782 428.44732815027237,248.8602293729782 426.8344248533249,249.39786380529404 425.75915598869324,249.93549823760986 425.2215215563774,250.4731326699257 425.2215215563774,251.01076710224152 424.6838871240616,251.01076710224152 423.0709838271141,252.08603596687317 421.4580805301666,252.08603596687317 421.4580805301666,252.623670399189 420.9204460978508,252.623670399189 418.23227393627167,253.69893926382068 417.15700507164,254.23657369613647 415.0064673423767,254.23657369613647 413.93119847774506,255.31184256076813 412.8559296131134,256.3871114253998 411.2430263161659,256.9247458577156 409.0924885869026,257.46238029003143 406.4043164253235,258.5376491546631 404.2537786960602,259.61291801929474 403.71614426374435,259.61291801929474 402.64087539911276,259.61291801929474 402.1032409667969,259.61291801929474 401.56560653448105,260.15055245161057 401.0279721021652,260.15055245161057 399.95270323753357,260.15055245161057 397.80216550827026,261.76345574855804 395.65162777900696,261.76345574855804 394.5763589143753,261.76345574855804 393.50109004974365,261.76345574855804 392.9634556174278,261.76345574855804 391.8881867527962,262.30109018087387 391.35055232048035,262.30109018087387 390.2752834558487,262.30109018087387 387.58711129426956,262.30109018087387 387.04947686195374,262.8387246131897 386.5118424296379,263.3763590455055 386.5118424296379,263.91399347782135 385.43657356500626,263.91399347782135 384.8989391326905,263.91399347782135 384.3613047003746,264.989262342453 383.8236702680588,264.989262342453 382.7484014034271,264.989262342453 382.2107669711113,264.989262342453 381.67313253879547,264.989262342453 381.13549810647964,264.989262342453 376.83442264795303,264.989262342453 375.7591537833213,264.989262342453 375.22151935100555,264.989262342453 374.1462504863739,264.989262342453 371.9957127571106,264.989262342453 371.4580783247948,264.989262342453 370.3828094601631,264.989262342453 369.8451750278473,263.91399347782135 368.76990616321564,263.91399347782135 367.15700286626816,264.4516279101372 366.0817340016365,264.4516279101372 363.9311962723732,263.91399347782135 362.85592740774155,263.91399347782135 362.85592740774155,263.3763590455055 361.7806585431099,263.3763590455055 361.24302411079407,263.3763590455055 360.70538967847824,263.3763590455055 359.6301208138466,263.3763590455055 359.09248638153076,263.3763590455055 358.55485194921494,262.30109018087387 358.01721751689917,262.30109018087387 358.01721751689917,261.76345574855804 357.4795830845833,261.76345574855804 356.94194865226746,261.76345574855804 355.8666797876358,261.2258213162422 355.32904535532,261.76345574855804 354.79141092300415,261.76345574855804 353.7161420583725,261.2258213162422 353.17850762605667,261.2258213162422 "/><polyline fill="none" stroke="#222222" style="color: rgb(0, 0, 0);" stroke-width="2" stroke-linejoin="round" stroke-dashoffset="" fill-rule="nonzero" marker-start="" marker-mid="" marker-end="" id="svg_2" points="306.4043120145798,161.76345133781433 305.86667758226395,161.76345133781433 304.7914087176323,161.2258169054985 304.7914087176323,159.61291360855103 303.71613985300064,158.00001031160355 303.71613985300064,157.46237587928772 303.71613985300064,156.9247414469719 303.71613985300064,156.38710701465607 303.71613985300064,155.3118381500244 303.71613985300064,154.23656928539276 303.71613985300064,153.69893485307693 303.71613985300064,152.08603155612946 303.71613985300064,150.47312825918198 304.25377428531647,148.8602249622345 305.3290431499481,146.7096872329712 305.3290431499481,145.0967839360237 306.4043120145798,144.02151507139206 306.9419464468956,142.9462462067604 307.4795808792114,141.87097734212875 308.5548497438431,141.33334290981293 308.5548497438431,140.7957084774971 309.63011860847473,140.7957084774971 310.16775304079056,140.7957084774971 310.7053874731064,140.7957084774971 311.2430219054222,140.7957084774971 312.31829077005386,139.18280518054962 313.3935596346856,139.18280518054962 315.006462931633,139.18280518054962 316.6193662285805,137.56990188360214 318.23226952552795,138.10753631591797 318.7699039578438,137.56990188360214 319.84517282247543,137.56990188360214 320.38280725479126,137.56990188360214 320.9204416871071,137.56990188360214 321.99571055173874,137.56990188360214 322.53334498405457,137.56990188360214 323.0709794163704,138.10753631591797 324.68388271331787,137.56990188360214 325.2215171456337,137.56990188360214 326.29678601026535,138.10753631591797 326.83442044258123,138.6451707482338 328.44732373952866,139.18280518054962 328.9849581718445,139.72043961286545 328.9849581718445,140.7957084774971 328.9849581718445,142.40861177444458 331.13549590110773,143.48388063907623 331.13549590110773,145.63441836833954 331.6731303334236,146.7096872329712 331.6731303334236,147.24732166528702 331.6731303334236,148.32259052991867 332.21076476573944,149.39785939455032 332.21076476573944,151.01076269149777 332.21076476573944,152.08603155612946 331.6731303334236,153.69893485307693 331.6731303334236,154.23656928539276 331.6731303334236,155.84947258234024 330.06022703647614,156.9247414469719 329.5225926041603,158.00001031160355 329.5225926041603,158.53764474391937 329.5225926041603,159.0752791762352 328.44732373952866,160.15054804086685 328.44732373952866,160.68818247318268 327.90968930721283,161.2258169054985 327.90968930721283,161.76345133781433 327.372054874897,161.76345133781433 325.2215171456337,163.3763546347618 323.0709794163704,164.4516234993935 323.0709794163704,164.9892579317093 320.38280725479126,165.52689236402512 319.3075383901596,166.06452679634094 318.7699039578438,166.06452679634094 318.23226952552795,166.60216122865674 317.69463509321207,166.60216122865674 316.6193662285805,167.1397956609726 315.5440973639488,167.1397956609726 315.006462931633,167.1397956609726 313.93119406700134,167.1397956609726 313.3935596346856,167.1397956609726 310.16775304079056,166.60216122865674 308.5548497438431,166.60216122865674 307.4795808792114,166.60216122865674 306.9419464468956,166.60216122865674 306.4043120145798,166.06452679634094 305.86667758226395,166.06452679634094 304.7914087176323,165.52689236402512 303.71613985300064,164.4516234993935 303.71613985300064,163.91398906707764 303.71613985300064,163.3763546347618 303.1785054206848,163.3763546347618 303.1785054206848,162.30108577013016 302.640870988369,162.30108577013016 302.640870988369,160.15054804086685 302.640870988369,159.0752791762352 302.640870988369,158.53764474391937 302.10323655605316,158.00001031160355 302.10323655605316,156.9247414469719 302.10323655605316,156.38710701465607 302.10323655605316,155.84947258234024 302.10323655605316,155.3118381500244 301.0279676914215,154.23656928539276 301.0279676914215,153.1613004207611 301.56560212373734,152.08603155612946 301.56560212373734,151.54839712381363 301.56560212373734,150.47312825918198 302.10323655605316,149.93549382686615 "/><polyline fill="none" stroke="#222222" style="color: rgb(0, 0, 0);" stroke-width="2" stroke-linejoin="round" stroke-dashoffset="" fill-rule="nonzero" marker-start="" marker-mid="" marker-end="" id="svg_3" points="424.14625269174576,169.82796782255173 420.9204460978508,169.82796782255173 419.84517723321915,169.82796782255173 418.23227393627167,170.36560225486755 417.15700507164,170.36560225486755 416.6193706393242,169.82796782255173 415.54410177469254,169.82796782255173 413.93119847774506,169.82796782255173 411.78066074848175,169.82796782255173 409.63012301921844,169.82796782255173 407.47958528995514,169.2903333902359 405.86668199300766,168.75269895792007 404.791413128376,168.21506452560425 404.2537786960602,167.67743009328842 402.64087539911276,167.67743009328842 400.4903376698494,166.60216122865674 399.41506880521774,164.9892579317093 396.7268966436386,163.3763546347618 395.65162777900696,160.15054804086685 395.11399334669113,157.46237587928772 395.11399334669113,155.3118381500244 395.11399334669113,153.1613004207611 395.11399334669113,149.39785939455032 395.11399334669113,148.32259052991867 395.11399334669113,147.24732166528702 395.65162777900696,145.0967839360237 396.1892622113228,144.02151507139206 398.3397999405861,140.7957084774971 398.8774343729019,140.25807404518127 399.95270323753357,140.25807404518127 400.4903376698494,139.18280518054962 401.0279721021652,138.6451707482338 402.1032409667969,138.10753631591797 403.1785098314285,137.03226745128632 403.71614426374435,136.4946330189705 405.32904756069183,136.4946330189705 406.94195085763926,135.95699858665466 407.47958528995514,135.95699858665466 409.0924885869026,135.41936415433884 409.63012301921844,135.41936415433884 411.2430263161659,134.881729722023 413.93119847774506,134.34409528970718 415.0064673423767,133.80646085739136 416.0817362070084,133.80646085739136 418.7699083685875,133.80646085739136 422.5333493947983,133.80646085739136 424.14625269174576,133.80646085739136 425.2215215563774,133.80646085739136 425.2215215563774,134.34409528970718 425.75915598869324,134.34409528970718 426.29679042100906,134.34409528970718 427.3720592856407,134.34409528970718 427.90969371795654,134.34409528970718 428.9849625825882,134.881729722023 430.06023144721985,135.41936415433884 431.1355003118515,136.4946330189705 432.748403608799,137.56990188360214 433.8236724734306,139.18280518054962 435.4365757703781,141.87097734212875 436.51184463500977,143.48388063907623 437.0494790673256,144.02151507139206 437.5871134996414,145.63441836833954 439.7376512289047,147.24732166528702 440.8129200935364,148.8602249622345 441.3505545258522,149.93549382686615 441.3505545258522,151.01076269149777 442.42582339048386,153.1613004207611 442.9634578227997,155.3118381500244 442.9634578227997,156.9247414469719 442.9634578227997,159.61291360855103 443.5010922551155,160.15054804086685 442.9634578227997,162.83872020244598 442.9634578227997,163.91398906707764 441.3505545258522,166.60216122865674 440.27528566122055,168.21506452560425 439.2000167965889,169.82796782255173 437.0494790673256,171.4408711194992 435.4365757703781,173.5914088487625 433.8236724734306,175.74194657802582 432.748403608799,177.3548498749733 431.1355003118515,178.43011873960495 430.06023144721985,178.96775317192078 429.5225970149041,179.5053876042366 428.44732815027237,179.5053876042366 427.90969371795654,179.5053876042366 426.8344248533249,179.5053876042366 426.29679042100906,179.5053876042366 425.2215215563774,179.5053876042366 424.6838871240616,179.5053876042366 424.14625269174576,179.5053876042366 423.0709838271141,178.96775317192078 422.5333493947983,178.96775317192078 420.3828116655349,178.43011873960495 418.23227393627167,177.3548498749733 416.0817362070084,176.81721544265747 415.0064673423767,175.74194657802582 415.0064673423767,175.20431214571 414.4688329100609,175.20431214571 413.39356404542923,175.20431214571 412.8559296131134,174.66667771339417 412.3182951807976,174.66667771339417 412.3182951807976,174.12904328107834 412.3182951807976,173.5914088487625 411.2430263161659,173.5914088487625 410.7053918838501,173.5914088487625 410.16775745153427,173.5914088487625 409.63012301921844,173.5914088487625 409.63012301921844,173.0537744164467 409.0924885869026,171.97850555181503 409.0924885869026,171.4408711194992 408.01721972227097,171.4408711194992 407.47958528995514,171.4408711194992 406.94195085763926,171.4408711194992 406.4043164253235,171.4408711194992 406.4043164253235,170.90323668718338 405.86668199300766,169.82796782255173 404.791413128376,168.75269895792007 403.71614426374435,168.75269895792007 403.1785098314285,166.60216122865674 401.56560653448105,164.4516234993935 401.0279721021652,164.4516234993935 401.0279721021652,163.3763546347618 "/><polyline fill="none" stroke="#222222" style="color: rgb(0, 0, 0);" stroke-width="2" stroke-linejoin="round" stroke-dashoffset="" fill-rule="nonzero" marker-start="" marker-mid="" marker-end="" id="svg_4" points="342.42581897974014,206.92474365234375 342.96345341205597,206.92474365234375 343.5010878443718,206.92474365234375 344.5763567090034,206.92474365234375 345.6516255736351,206.92474365234375 345.6516255736351,209.07528138160708 346.1892600059509,211.7634535431862 346.1892600059509,213.37635684013367 346.72689443826675,214.98926013708115 346.72689443826675,215.52689456939697 347.2645288705826,216.60216343402863 348.33979773521423,218.75270116329193 348.87743216753006,219.29033559560776 349.4150665998459,219.82797002792358 349.4150665998459,220.3656044602394 350.49033546447754,221.9785077571869 351.02796989679337,222.51614218950272 352.64087319374084,223.05377662181854 353.7161420583725,223.05377662181854 355.32904535532,223.59141105413437 355.32904535532,224.66667991876605 355.8666797876358,224.66667991876605 356.40431421995163,224.66667991876605 357.4795830845833,224.66667991876605 358.01721751689917,223.59141105413437 361.24302411079407,222.51614218950272 362.31829297542566,222.51614218950272 362.31829297542566,221.9785077571869 362.31829297542566,221.44087332487106 363.9311962723732,219.29033559560776 363.9311962723732,218.2150667309761 363.9311962723732,217.67743229866028 364.468830704689,217.13979786634445 364.468830704689,216.60216343402863 364.468830704689,216.0645290017128 364.468830704689,215.52689456939697 364.468830704689,214.98926013708115 365.00646513700485,213.37635684013367 365.5440995693207,211.7634535431862 365.5440995693207,210.68818467855453 365.5440995693207,210.1505502462387 365.5440995693207,209.61291581392288 "/><polyline fill="none" stroke="#222222" style="color: rgb(0, 0, 0);" stroke-width="2" stroke-linejoin="round" stroke-dashoffset="" fill-rule="nonzero" marker-start="" marker-mid="" marker-end="" id="svg_5" points="335.4365713596344,149.93549382686615 335.4365713596344,150.47312825918198 335.4365713596344,151.54839712381363 335.4365713596344,152.62366598844528 335.4365713596344,153.69893485307693 335.4365713596344,154.23656928539276 335.4365713596344,155.84947258234024 335.4365713596344,156.38710701465607 335.4365713596344,156.9247414469719 335.9742057919502,157.46237587928772 335.9742057919502,159.0752791762352 335.4365713596344,159.61291360855103 335.4365713596344,160.68818247318268 335.4365713596344,161.2258169054985 335.9742057919502,162.30108577013016 335.9742057919502,163.91398906707764 335.9742057919502,164.4516234993935 335.9742057919502,165.52689236402512 335.9742057919502,166.06452679634094 335.9742057919502,167.1397956609726 335.4365713596344,168.75269895792007 335.4365713596344,169.82796782255173 335.4365713596344,170.90323668718338 334.8989369273186,170.90323668718338 334.8989369273186,171.4408711194992 334.8989369273186,172.51613998413086 333.8236680626869,173.0537744164467 333.8236680626869,174.12904328107834 333.2860336303711,174.12904328107834 332.74839919805527,176.27958101034164 332.74839919805527,177.3548498749733 331.6731303334236,177.89248430728912 330.06022703647614,179.5053876042366 329.5225926041603,180.58065646886826 328.44732373952866,181.11829090118408 328.44732373952866,181.6559253334999 327.372054874897,181.6559253334999 326.83442044258123,181.6559253334999 325.7591515779495,182.1935597658157 325.2215171456337,182.1935597658157 324.68388271331787,182.1935597658157 323.6086138486862,182.1935597658157 322.53334498405457,182.1935597658157 321.4580761194229,182.1935597658157 320.38280725479126,183.2688286304474 319.84517282247543,183.8064630627632 319.3075383901596,183.8064630627632 318.23226952552795,183.8064630627632 317.1570006608963,183.8064630627632 316.6193662285805,183.8064630627632 316.08173179626465,183.8064630627632 "/><polyline fill="none" stroke="#222222" style="color: rgb(0, 0, 0);" stroke-width="2" stroke-linejoin="round" stroke-dashoffset="" fill-rule="nonzero" marker-start="" marker-mid="" marker-end="" id="svg_6" points="395.65162777900696,153.69893485307693 395.65162777900696,154.23656928539276 395.65162777900696,154.7742037177086 395.11399334669113,156.38710701465607 394.5763589143753,156.38710701465607 394.0387244820595,158.00001031160355 392.9634556174278,159.61291360855103 392.9634556174278,160.15054804086685 392.9634556174278,161.2258169054985 391.8881867527962,162.83872020244598 391.8881867527962,164.4516234993935 391.8881867527962,164.9892579317093 391.8881867527962,166.06452679634094 391.8881867527962,167.1397956609726 391.8881867527962,168.75269895792007 391.8881867527962,170.36560225486755 391.8881867527962,171.97850555181503 391.8881867527962,173.0537744164467 391.8881867527962,174.12904328107834 391.8881867527962,175.74194657802582 392.425821185112,176.81721544265747 392.425821185112,177.89248430728912 392.425821185112,178.43011873960495 392.425821185112,179.5053876042366 392.425821185112,180.58065646886826 392.9634556174278,181.6559253334999 393.50109004974365,181.6559253334999 394.0387244820595,183.2688286304474 394.5763589143753,184.34409749507904 395.11399334669113,184.34409749507904 395.11399334669113,185.4193663597107 395.65162777900696,185.4193663597107 396.7268966436386,185.4193663597107 397.80216550827026,186.49463522434235 398.8774343729019,187.03226965665817 399.41506880521774,187.569904088974 400.4903376698494,188.10753852128983 400.4903376698494,188.64517295360565 401.56560653448105,188.64517295360565 402.64087539911276,188.64517295360565 402.64087539911276,189.7204418182373 403.71614426374435,189.7204418182373 "/><polyline fill="none" stroke="#222222" style="color: rgb(0, 0, 0);" stroke-width="2" stroke-linejoin="round" stroke-dashoffset="" fill-rule="nonzero" marker-start="" marker-mid="" marker-end="" id="svg_7" points="353.7161420583725,173.0537744164467 353.17850762605667,173.0537744164467 352.64087319374084,173.5914088487625 351.5656043291092,174.66667771339417 351.02796989679337,174.66667771339417 350.49033546447754,174.66667771339417 349.4150665998459,174.66667771339417 348.33979773521423,175.20431214571 347.8021633028984,175.74194657802582 347.2645288705826,176.27958101034164 346.1892600059509,176.81721544265747 346.1892600059509,177.3548498749733 345.1139911413193,177.3548498749733 344.0387222766876,177.89248430728912 342.42581897974014,178.96775317192078 341.8881845474243,178.96775317192078 342.42581897974014,178.96775317192078 343.5010878443718,178.96775317192078 345.1139911413193,178.96775317192078 346.1892600059509,178.96775317192078 348.33979773521423,180.58065646886826 350.49033546447754,180.58065646886826 351.5656043291092,182.1935597658157 352.103238761425,182.1935597658157 352.64087319374084,182.1935597658157 353.7161420583725,182.1935597658157 353.7161420583725,183.2688286304474 354.79141092300415,183.2688286304474 "/><polyline fill="none" stroke="#222222" style="color: rgb(0, 0, 0);" stroke-width="2" stroke-linejoin="round" stroke-dashoffset="" fill-rule="nonzero" marker-start="" marker-mid="" marker-end="" id="svg_8" points="336.51184022426605,259.61291801929474 337.0494746565819,259.61291801929474 339.2000123858452,260.6881868839264 339.737646818161,262.8387246131897 340.81291568279266,263.91399347782135 340.81291568279266,264.4516279101372 340.81291568279266,264.989262342453 341.3505501151085,267.67743450403214 341.3505501151085,269.2903378009796 341.3505501151085,270.9032410979271 341.3505501151085,272.5161443948746 341.3505501151085,273.5914132595062 341.3505501151085,274.6666821241379 341.3505501151085,276.27958542108536 340.2752812504769,278.9677575826645 339.2000123858452,281.1182953119278 338.12474352121353,284.34410190582275 337.0494746565819,286.49463963508606 337.0494746565819,288.10754293203354 337.0494746565819,288.64517736434937 336.51184022426605,290.79571509361267 335.4365713596344,291.3333495259285 334.8989369273186,292.40861839056015 333.8236680626869,293.4838872551918 333.2860336303711,294.02152168750763 332.74839919805527,296.17205941677094 332.21076476573944,297.7849627137184 331.13549590110773,300.47313487529755 330.06022703647614,302.62367260456085 328.9849581718445,303.1613070368767 328.44732373952866,304.23657590150833 327.90968930721283,304.77421033382416 326.83442044258123,305.31184476614 326.83442044258123,305.8494791984558 326.83442044258123,306.38711363077164 326.83442044258123,306.92474806308746 325.7591515779495,306.92474806308746 325.2215171456337,306.92474806308746 325.2215171456337,308.0000169277191 324.68388271331787,308.0000169277191 324.14624828100204,308.0000169277191 "/><polyline fill="none" stroke="#222222" style="color: rgb(0, 0, 0);" stroke-width="2" stroke-linejoin="round" stroke-dashoffset="" fill-rule="nonzero" marker-start="" marker-mid="" marker-end="" id="svg_9" points="370.3828094601631,266.06453120708466 370.3828094601631,266.6021656394005 370.3828094601631,267.1398000717163 369.30754059553146,271.4408755302429 368.2322717308998,273.5914132595062 367.15700286626816,275.2043165564537 366.61936843395233,277.354854285717 366.61936843395233,278.43012315034866 366.0817340016365,279.5053920149803 365.5440995693207,280.04302644729614 365.5440995693207,280.58066087961197 365.5440995693207,281.1182953119278 365.5440995693207,281.6559297442437 365.5440995693207,283.2688330411911 365.5440995693207,284.8817363381386 365.5440995693207,287.0322740674019 366.0817340016365,288.64517736434937 366.0817340016365,290.79571509361267 365.5440995693207,291.8709839582443 366.0817340016365,292.946252822876 366.0817340016365,295.09679055213934 366.61936843395233,296.17205941677094 366.61936843395233,297.2473282814026 366.61936843395233,297.7849627137184 367.694637298584,298.32259714603424 368.2322717308998,299.39786601066584 368.76990616321564,299.39786601066584 369.30754059553146,299.39786601066584 369.8451750278473,299.39786601066584 369.8451750278473,299.9355004429817 370.3828094601631,300.47313487529755 370.92044389247894,300.47313487529755 371.9957127571106,300.47313487529755 373.07098162174225,300.47313487529755 373.6086160540581,300.47313487529755 374.1462504863739,300.47313487529755 374.6838849186897,300.47313487529755 375.22151935100555,300.47313487529755 "/></g></svg>